<?xml version="1.0" encoding="UTF-8" standalone="no"?>
<svg width="210px" height="250px" viewBox="0 0 210 250" version="1.1" xmlns="http://www.w3.org/2000/svg" xmlns:xlink="http://www.w3.org/1999/xlink" xmlns:sketch="http://www.bohemiancoding.com/sketch/ns">
    <!-- Generator: Sketch 3.2.2 (9983) - http://www.bohemiancoding.com/sketch -->
    <title>onion</title>
    <desc>Created with Sketch.</desc>
    <defs></defs>
    <g id="Page-1" stroke="none" stroke-width="1" fill="none" fill-rule="evenodd" sketch:type="MSPage">
        <g id="onion" sketch:type="MSLayerGroup" fill="#72A725">
            <path d="M144.795297,94.5802667 L144.812405,94.5802667 C137.376081,87.4293333 115.318027,67.4044444 112.004757,23.6 C106.746865,-45.6679111 102.800595,63.0581333 96.8241622,62.2787556 C90.6937568,61.4936889 103.131351,12.9959111 97.0807838,13.1438222 C90.5340811,83.7429333 37.613,135.915733 37.613,135.915733 C37.613,135.915733 54.9891351,106.788622 60.8458108,98.750222 C68.1338649,91.4513778 57.9146216,97.3109333 57.9146216,97.3109333 C57.9146216,97.3109333 47.5185946,101.850667 39.8484595,106.117333 C15.9028108,119.3952 0.52262162,140.006044 0.52262162,163.1712 C0.52262162,177.376356 6.32797297,190.637156 16.3305135,201.821511 C21.3032703,207.385244 34.9954595,216.2144 41.8501081,220.606222 C44.4733514,222.301511 36.4439459,200.029511 36.4439459,200.029511 C38.3201351,200.985244 46.1385405,223.467733 48.0717568,224.343822 C48.0717568,224.343822 53.8143784,230.169244 65.3338378,233.662222 C72.9469459,236.074311 79.7502703,236.296178 87.1067568,236.114133 L85.0537838,238.071111 L90.4770541,238.071111 L90.4770541,245.9104 L95.9117297,236.848 L95.9117297,249.830044 L101.791216,238.799289 L108.680081,249.830044 L108.680081,238.799289 L120.467568,249.830044 L111.160757,236.677333 C112.922892,237.024356 115.021486,237.371378 117.918459,237.581867 L120.467568,238.799289 L118.984865,237.6672 C120.267973,237.735467 121.693649,237.786667 123.358838,237.786667 C135.214757,237.786667 138.037595,231.636978 144.829514,229.543467 C144.829514,229.543467 144.840919,229.543467 144.852324,229.5264 C145.274324,229.230578 145.58227,228.946133 146.015676,228.650311 C155.208432,221.459556 215.702703,169.485867 144.795297,94.5802667" id="Fill-183" sketch:type="MSShapeGroup"></path>
            <path d="M158.327811,100.252089 C157.192973,99.7856 155.208432,99.279289 152.801892,97.8855111 C170.639946,112.221511 233.614892,171.027556 149.654,228.650311 C149.021,229.145244 148.604703,229.452444 148.519162,229.520711 C184.645784,218.268089 209.903054,192.816 209.903054,163.1712 C209.903054,136.274133 189.162324,112.7904 158.327811,100.252089" id="Fill-184" sketch:type="MSShapeGroup"></path>
        </g>
    </g>
</svg>